<svg width="34" height="44" viewBox="0 0 34 44" fill="none" xmlns="http://www.w3.org/2000/svg">
<path fill-rule="evenodd" clip-rule="evenodd" d="M0.800781 12.8541C0.800781 11.7495 1.69621 10.8541 2.80078 10.8541H31.6549C32.7594 10.8541 33.6549 11.7495 33.6549 12.8541V41.7082C33.6549 42.8127 32.7594 43.7082 31.6549 43.7082H2.80078C1.69621 43.7082 0.800781 42.8127 0.800781 41.7082V12.8541ZM13.1209 26.7278C13.1209 25.8993 13.7925 25.2278 14.6209 25.2278H19.8344C20.6628 25.2278 21.3344 25.8993 21.3344 26.7278V29.8879C21.3344 30.7163 20.6628 31.3879 19.8344 31.3879H18.8248L19.2811 35.4946H15.1744L15.6307 31.3879H14.6209C13.7925 31.3879 13.1209 30.7163 13.1209 29.8879V26.7278Z" fill="#469BFF"/>
<path d="M24.4412 8.80068V11.9074H10.0142V8.80068C10.0142 4.81676 13.2438 1.58716 17.2277 1.58716C21.2116 1.58716 24.4412 4.81676 24.4412 8.80068Z" stroke="#469BFF" stroke-width="2"/>
</svg>
