<svg width="37" height="84" viewBox="0 0 37 84" fill="none" xmlns="http://www.w3.org/2000/svg">
<path d="M19.3843 48.5177L10.5318 52.5773L0.504668 23.4604L0.504844 23.4604L0.501813 23.4523C0.501835 23.4523 0.501851 23.4523 0.501864 23.4523C0.502398 23.4522 0.495354 23.4199 0.505556 23.3461C0.516918 23.264 0.5459 23.16 0.596247 23.0489C0.699718 22.8207 0.865008 22.6221 1.05604 22.5191L1.14296 22.4722L1.14554 22.4691L7.47454 19.0836L7.47546 19.0831C7.86104 18.8758 8.33696 19.0302 8.52973 19.5682L8.52968 19.5682L8.53226 19.5751L19.3843 48.5177Z" stroke="#469BFF"/>
<mask id="path-2-inside-1_512_284" fill="white">
<path d="M9.85938 54.2172L20.6304 48.4569Z"/>
</mask>
<path d="M10.331 55.099L21.102 49.3387L20.1588 47.5751L9.38778 53.3354L10.331 55.099Z" fill="#469BFF" mask="url(#path-2-inside-1_512_284)"/>
<path d="M24.7853 81.7548L20.5025 70.381L23.0732 69.4925L26.6348 80.5542L26.2133 82.5854L24.7853 81.7548Z" stroke="#469BFF"/>
<path d="M17.9387 70.7001L17.7689 70.7244L17.9251 70.6639L12.2198 55.9362L20.0046 51.7703L24.9059 66.8052C24.9069 66.8117 24.9081 66.8193 24.9093 66.8279C24.9146 66.8653 24.9214 66.9212 24.9268 66.99C24.9377 67.1297 24.9416 67.3116 24.9184 67.495C24.8688 67.8875 24.7289 68.1102 24.4793 68.1809L24.4327 68.194L24.3895 68.2159L18.2768 71.3129C18.2018 71.2534 18.0546 71.0956 17.9387 70.7001ZM16.5574 55.2274C16.1541 55.5032 15.9817 56.0046 15.9296 56.4563C15.87 56.974 15.9453 57.5781 16.1546 58.1593C16.3625 58.7367 16.6793 59.2315 17.055 59.5503C17.4201 59.8602 17.9566 60.0828 18.4788 59.8028C18.9579 59.5459 19.1531 58.9988 19.2077 58.5109C19.2655 57.9942 19.1883 57.3916 18.9794 56.8114C18.7715 56.2341 18.4547 55.7393 18.079 55.4204C17.7465 55.1382 17.2717 54.9283 16.795 55.1048H16.6578L16.5574 55.2274ZM18.5294 62.1433C18.241 62.4303 18.1104 62.852 18.0673 63.2369C18.0096 63.7536 18.0867 64.3563 18.2956 64.9364C18.5035 65.5137 18.8204 66.0085 19.196 66.3274C19.5611 66.6373 20.0976 66.8599 20.6199 66.5798C21.0991 66.3229 21.2935 65.7765 21.3473 65.2891C21.4041 64.7732 21.326 64.1718 21.1173 63.5923C20.9094 63.0149 20.5926 62.5201 20.2169 62.2013C19.8844 61.919 19.4096 61.7092 18.9329 61.8856H18.5294V62.1433Z" stroke="#469BFF"/>
<mask id="path-6-inside-2_512_284" fill="white">
<path d="M36.9974 6.62511C36.3422 5.46311 35.7216 4.49988 34.7905 3.59015C32.8094 1.6484 30.3455 0.161498 27.3988 0.0124264C25.6716 -0.0793102 23.8848 0.341146 22.192 1.13237C21.1669 1.61017 20.1952 2.24468 19.2641 2.94417C18.2391 3.71629 17.3018 4.61837 16.2861 5.40577C16.0636 5.57778 15.8285 5.73832 15.6059 5.91032C15.4492 6.03264 15.8002 5.78037 15.6404 5.89122L15.4711 6.00588C15.3488 6.08615 15.2297 6.16642 15.1012 6.24669C14.7313 6.48368 14.352 6.69773 13.9633 6.88502C13.888 6.92707 13.8065 6.95765 13.7313 6.99205C13.6874 7.01116 13.6467 7.02645 13.6028 7.04556C13.4147 7.13348 13.7219 6.99588 13.7376 6.99588C13.6122 6.99205 13.4053 7.11437 13.2736 7.14877C13.142 7.18317 12.9946 7.20993 12.8504 7.24051C12.6153 7.28638 12.9915 7.24051 12.9476 7.22904C12.8818 7.22904 12.8128 7.22904 12.7439 7.23668C12.6624 7.23668 12.3238 7.19464 12.5589 7.23286C12.794 7.27108 12.4711 7.19846 12.3959 7.1717C12.3458 7.15641 12.1577 7.06468 12.3771 7.1717C12.584 7.27108 12.4304 7.19846 12.3834 7.16788C12.3207 7.11819 12.0668 6.90414 12.2454 7.07614C12.4241 7.24815 12.211 7.02645 12.1671 6.9653C12.142 6.9309 12.1201 6.89649 12.095 6.86209C11.9696 6.68626 12.1044 6.83534 12.142 6.9653C12.0856 6.76653 11.9759 6.5907 11.9163 6.38812C11.9006 6.34225 11.8943 6.29638 11.8818 6.25051C11.8223 6.03646 11.9038 6.30785 11.9069 6.38812C11.8944 6.26962 11.863 6.15113 11.8473 6.03264C11.8191 5.81094 11.8003 5.58542 11.794 5.35608C11.7846 5.1191 11.7878 4.88211 11.794 4.6413C11.794 4.59161 11.8003 4.5381 11.8003 4.4884C11.8003 4.43871 11.7721 4.87064 11.794 4.59926C11.8034 4.48459 11.8097 4.37374 11.8223 4.25907C11.8818 3.63602 11.9978 3.02062 12.1169 2.39757C12.1232 2.367 12.1326 2.33259 12.1389 2.30202C12.3175 1.57194 11.7721 1.0674 11.1765 0.990949C9.80661 0.834233 8.3709 1.01771 6.9728 1.5299C5.59978 2.03828 4.36782 2.83332 3.3553 4.02208C2.19231 5.38666 1.56222 7.15641 1.30204 8.8306C0.803616 12.0452 1.38041 15.1872 2.11708 18.096C2.27381 18.7114 3.09512 18.9369 3.66564 18.6006C4.32394 18.2145 4.57472 17.5265 4.40858 16.869C4.05121 15.5236 3.80043 14.136 3.6531 12.7179C3.59354 12.1331 3.55906 11.5445 3.54965 10.9482C3.54652 10.6845 3.54965 10.4245 3.55906 10.1608C3.55906 10.1035 3.56533 10.0423 3.56533 9.98114C3.57473 9.68682 3.54965 10.1914 3.56533 10.0041C3.57787 9.86264 3.58727 9.72504 3.59981 9.57979C3.6437 9.12875 3.7158 8.67389 3.81297 8.21903C3.85999 8.0088 3.91642 7.79857 3.96971 7.58834C4.023 7.37811 3.86626 7.89413 3.97285 7.5807C4.00733 7.47367 4.04495 7.37047 4.08256 7.26344C4.21736 6.91178 4.37096 6.57159 4.5465 6.23522C4.64055 6.04793 4.35842 6.54101 4.52456 6.27727C4.56531 6.21229 4.60293 6.14731 4.64681 6.08233C4.74086 5.93326 4.8443 5.78801 4.95089 5.64658C5.04493 5.52426 5.13897 5.41342 5.24242 5.2911C5.34586 5.16879 4.9791 5.56249 5.18599 5.35608C5.24555 5.29492 5.30511 5.22994 5.36781 5.16878C5.58724 4.96238 5.81294 4.76744 6.05118 4.59161C6.28629 4.40814 5.75965 4.77891 5.97908 4.6413L6.13896 4.5381C6.26435 4.45783 6.39287 4.38138 6.52139 4.31258C6.76277 4.18262 7.00728 4.07177 7.25492 3.96474C7.50257 3.85772 6.99474 4.05648 7.13894 4.00679C7.19223 3.98768 7.24552 3.96857 7.29881 3.94946C7.42734 3.90359 7.55273 3.86536 7.68125 3.82714C7.90695 3.75834 8.13579 3.70482 8.36463 3.65513C8.59346 3.60544 8.80349 3.57486 9.02606 3.54428L9.16399 3.52517C9.4085 3.49077 8.83797 3.55193 9.03546 3.54046C9.13577 3.53282 9.23922 3.52135 9.33953 3.51753C9.80347 3.4793 10.2643 3.48695 10.7126 3.53664L9.75019 2.22557C9.40536 3.65513 9.23922 5.21465 9.41477 6.58688C9.55583 7.68772 9.93827 8.82296 10.8536 9.3772C12.0542 10.1035 13.5777 9.72504 14.9351 9.03701C15.9068 8.54393 16.8284 7.88648 17.7093 7.20228C18.7375 6.40341 19.6842 5.48604 20.7312 4.7101C20.8472 4.62601 20.9632 4.5381 21.0823 4.45783C20.8346 4.63366 21.1419 4.41961 21.2265 4.36609C21.4459 4.22084 21.6779 4.07559 21.9099 3.94181C22.3425 3.68571 22.7876 3.46019 23.239 3.26143C23.3456 3.21556 23.4553 3.16969 23.5619 3.12383C23.7813 3.03209 23.2954 3.21556 23.6026 3.10853C23.8252 3.02826 24.0478 2.95564 24.2735 2.89066C24.6653 2.77599 25.0603 2.68808 25.4553 2.62692C25.5524 2.61163 25.6528 2.60398 25.7499 2.58487C25.9067 2.55429 25.4992 2.60399 25.6559 2.59252C25.6935 2.59252 25.728 2.58487 25.7656 2.58105C25.9694 2.56576 26.1731 2.55429 26.3737 2.55047C26.7468 2.54665 27.1135 2.56576 27.4772 2.60781L27.7091 2.63838C28.0101 2.68043 27.5775 2.60781 27.7436 2.64221C27.9098 2.67661 28.0885 2.71101 28.2577 2.75306C28.5931 2.83715 28.9192 2.94035 29.2389 3.05885C29.543 3.17352 29.8439 3.37992 30.1574 3.45637C30.1448 3.45637 29.9035 3.32641 30.0602 3.4105C30.0978 3.42961 30.1323 3.44872 30.1731 3.46784C30.2358 3.50224 30.2985 3.53664 30.3611 3.57104C30.5116 3.65513 30.6621 3.74305 30.8063 3.83478C31.3266 4.15969 31.8251 4.52281 32.2922 4.92415C32.5084 5.10763 30.5931 3.14676 30.8031 3.33788C30.9129 3.44108 30.5931 3.12765 30.7812 3.31876C30.8314 3.36845 30.8784 3.41815 30.9254 3.46784C31.0194 3.56339 31.1135 3.66278 31.2075 3.76216C31.5367 4.11382 31.847 4.48076 32.1448 4.863C32.4865 5.30257 32.7812 5.7689 33.0946 6.23522C33.1103 6.25816 33.1229 6.28492 33.1354 6.30785C33.4457 6.85445 34.4865 7.40869 34.9818 6.96912C35.5742 6.44545 36.4457 7.51954 36.1353 6.96912L37.0005 6.61746L36.9974 6.62511Z"/>
</mask>
<path d="M36.9974 6.62511C36.3422 5.46311 35.7216 4.49988 34.7905 3.59015C32.8094 1.6484 30.3455 0.161498 27.3988 0.0124264C25.6716 -0.0793102 23.8848 0.341146 22.192 1.13237C21.1669 1.61017 20.1952 2.24468 19.2641 2.94417C18.2391 3.71629 17.3018 4.61837 16.2861 5.40577C16.0636 5.57778 15.8285 5.73832 15.6059 5.91032C15.4492 6.03264 15.8002 5.78037 15.6404 5.89122L15.4711 6.00588C15.3488 6.08615 15.2297 6.16642 15.1012 6.24669C14.7313 6.48368 14.352 6.69773 13.9633 6.88502C13.888 6.92707 13.8065 6.95765 13.7313 6.99205C13.6874 7.01116 13.6467 7.02645 13.6028 7.04556C13.4147 7.13348 13.7219 6.99588 13.7376 6.99588C13.6122 6.99205 13.4053 7.11437 13.2736 7.14877C13.142 7.18317 12.9946 7.20993 12.8504 7.24051C12.6153 7.28638 12.9915 7.24051 12.9476 7.22904C12.8818 7.22904 12.8128 7.22904 12.7439 7.23668C12.6624 7.23668 12.3238 7.19464 12.5589 7.23286C12.794 7.27108 12.4711 7.19846 12.3959 7.1717C12.3458 7.15641 12.1577 7.06468 12.3771 7.1717C12.584 7.27108 12.4304 7.19846 12.3834 7.16788C12.3207 7.11819 12.0668 6.90414 12.2454 7.07614C12.4241 7.24815 12.211 7.02645 12.1671 6.9653C12.142 6.9309 12.1201 6.89649 12.095 6.86209C11.9696 6.68626 12.1044 6.83534 12.142 6.9653C12.0856 6.76653 11.9759 6.5907 11.9163 6.38812C11.9006 6.34225 11.8943 6.29638 11.8818 6.25051C11.8223 6.03646 11.9038 6.30785 11.9069 6.38812C11.8944 6.26962 11.863 6.15113 11.8473 6.03264C11.8191 5.81094 11.8003 5.58542 11.794 5.35608C11.7846 5.1191 11.7878 4.88211 11.794 4.6413C11.794 4.59161 11.8003 4.5381 11.8003 4.4884C11.8003 4.43871 11.7721 4.87064 11.794 4.59926C11.8034 4.48459 11.8097 4.37374 11.8223 4.25907C11.8818 3.63602 11.9978 3.02062 12.1169 2.39757C12.1232 2.367 12.1326 2.33259 12.1389 2.30202C12.3175 1.57194 11.7721 1.0674 11.1765 0.990949C9.80661 0.834233 8.3709 1.01771 6.9728 1.5299C5.59978 2.03828 4.36782 2.83332 3.3553 4.02208C2.19231 5.38666 1.56222 7.15641 1.30204 8.8306C0.803616 12.0452 1.38041 15.1872 2.11708 18.096C2.27381 18.7114 3.09512 18.9369 3.66564 18.6006C4.32394 18.2145 4.57472 17.5265 4.40858 16.869C4.05121 15.5236 3.80043 14.136 3.6531 12.7179C3.59354 12.1331 3.55906 11.5445 3.54965 10.9482C3.54652 10.6845 3.54965 10.4245 3.55906 10.1608C3.55906 10.1035 3.56533 10.0423 3.56533 9.98114C3.57473 9.68682 3.54965 10.1914 3.56533 10.0041C3.57787 9.86264 3.58727 9.72504 3.59981 9.57979C3.6437 9.12875 3.7158 8.67389 3.81297 8.21903C3.85999 8.0088 3.91642 7.79857 3.96971 7.58834C4.023 7.37811 3.86626 7.89413 3.97285 7.5807C4.00733 7.47367 4.04495 7.37047 4.08256 7.26344C4.21736 6.91178 4.37096 6.57159 4.5465 6.23522C4.64055 6.04793 4.35842 6.54101 4.52456 6.27727C4.56531 6.21229 4.60293 6.14731 4.64681 6.08233C4.74086 5.93326 4.8443 5.78801 4.95089 5.64658C5.04493 5.52426 5.13897 5.41342 5.24242 5.2911C5.34586 5.16879 4.9791 5.56249 5.18599 5.35608C5.24555 5.29492 5.30511 5.22994 5.36781 5.16878C5.58724 4.96238 5.81294 4.76744 6.05118 4.59161C6.28629 4.40814 5.75965 4.77891 5.97908 4.6413L6.13896 4.5381C6.26435 4.45783 6.39287 4.38138 6.52139 4.31258C6.76277 4.18262 7.00728 4.07177 7.25492 3.96474C7.50257 3.85772 6.99474 4.05648 7.13894 4.00679C7.19223 3.98768 7.24552 3.96857 7.29881 3.94946C7.42734 3.90359 7.55273 3.86536 7.68125 3.82714C7.90695 3.75834 8.13579 3.70482 8.36463 3.65513C8.59346 3.60544 8.80349 3.57486 9.02606 3.54428L9.16399 3.52517C9.4085 3.49077 8.83797 3.55193 9.03546 3.54046C9.13577 3.53282 9.23922 3.52135 9.33953 3.51753C9.80347 3.4793 10.2643 3.48695 10.7126 3.53664L9.75019 2.22557C9.40536 3.65513 9.23922 5.21465 9.41477 6.58688C9.55583 7.68772 9.93827 8.82296 10.8536 9.3772C12.0542 10.1035 13.5777 9.72504 14.9351 9.03701C15.9068 8.54393 16.8284 7.88648 17.7093 7.20228C18.7375 6.40341 19.6842 5.48604 20.7312 4.7101C20.8472 4.62601 20.9632 4.5381 21.0823 4.45783C20.8346 4.63366 21.1419 4.41961 21.2265 4.36609C21.4459 4.22084 21.6779 4.07559 21.9099 3.94181C22.3425 3.68571 22.7876 3.46019 23.239 3.26143C23.3456 3.21556 23.4553 3.16969 23.5619 3.12383C23.7813 3.03209 23.2954 3.21556 23.6026 3.10853C23.8252 3.02826 24.0478 2.95564 24.2735 2.89066C24.6653 2.77599 25.0603 2.68808 25.4553 2.62692C25.5524 2.61163 25.6528 2.60398 25.7499 2.58487C25.9067 2.55429 25.4992 2.60399 25.6559 2.59252C25.6935 2.59252 25.728 2.58487 25.7656 2.58105C25.9694 2.56576 26.1731 2.55429 26.3737 2.55047C26.7468 2.54665 27.1135 2.56576 27.4772 2.60781L27.7091 2.63838C28.0101 2.68043 27.5775 2.60781 27.7436 2.64221C27.9098 2.67661 28.0885 2.71101 28.2577 2.75306C28.5931 2.83715 28.9192 2.94035 29.2389 3.05885C29.543 3.17352 29.8439 3.37992 30.1574 3.45637C30.1448 3.45637 29.9035 3.32641 30.0602 3.4105C30.0978 3.42961 30.1323 3.44872 30.1731 3.46784C30.2358 3.50224 30.2985 3.53664 30.3611 3.57104C30.5116 3.65513 30.6621 3.74305 30.8063 3.83478C31.3266 4.15969 31.8251 4.52281 32.2922 4.92415C32.5084 5.10763 30.5931 3.14676 30.8031 3.33788C30.9129 3.44108 30.5931 3.12765 30.7812 3.31876C30.8314 3.36845 30.8784 3.41815 30.9254 3.46784C31.0194 3.56339 31.1135 3.66278 31.2075 3.76216C31.5367 4.11382 31.847 4.48076 32.1448 4.863C32.4865 5.30257 32.7812 5.7689 33.0946 6.23522C33.1103 6.25816 33.1229 6.28492 33.1354 6.30785C33.4457 6.85445 34.4865 7.40869 34.9818 6.96912C35.5742 6.44545 36.4457 7.51954 36.1353 6.96912L37.0005 6.61746L36.9974 6.62511Z" stroke="#469BFF" stroke-width="2" mask="url(#path-6-inside-2_512_284)"/>
<mask id="path-7-inside-3_512_284" fill="white">
<path d="M5.80581 19.1243L2.14756 20.6647L1.31372 18.3446C1.22595 18.1038 1.35447 17.8018 1.60212 17.6718L3.9375 16.4219C4.35442 16.2002 4.80896 16.3493 4.9563 16.7545"/>
</mask>
<path d="M2.14756 20.6647L1.20649 21.0029L1.56331 21.9958L2.53564 21.5864L2.14756 20.6647ZM1.31372 18.3446L2.2548 18.0064L2.25325 18.0021L1.31372 18.3446ZM1.60212 17.6718L2.06682 18.5573L2.07399 18.5535L1.60212 17.6718ZM3.9375 16.4219L3.468 15.539L3.46563 15.5403L3.9375 16.4219ZM5.41774 18.2027L1.75948 19.7431L2.53564 21.5864L6.19389 20.046L5.41774 18.2027ZM3.08863 20.3265L2.25479 18.0064L0.372648 18.6828L1.20649 21.0029L3.08863 20.3265ZM2.25325 18.0021C2.30984 18.1573 2.28291 18.2866 2.25156 18.3599C2.2194 18.4351 2.16017 18.5083 2.0668 18.5573L1.13743 16.7864C0.502692 17.1195 0.0940133 17.9184 0.374184 18.687L2.25325 18.0021ZM2.07399 18.5535L4.40938 17.3036L3.46563 15.5403L1.13024 16.7902L2.07399 18.5535ZM4.407 17.3049C4.39918 17.309 4.33609 17.3359 4.23728 17.3036C4.13041 17.2687 4.04823 17.1835 4.0165 17.0962L5.89609 16.4127C5.50663 15.3417 4.32857 15.0814 3.46801 15.539L4.407 17.3049Z" fill="#469BFF" mask="url(#path-7-inside-3_512_284)"/>
<path d="M10.3409 54.2723L20.7151 48.7242L21.3824 50.5784C21.3824 50.5784 21.3824 50.5784 21.3824 50.5785C21.3825 50.5788 21.3834 50.5818 21.3834 50.5879C21.3833 50.5947 21.382 50.6024 21.3795 50.6094C21.379 50.6107 21.3786 50.6118 21.3782 50.6128L10.7565 56.297L10.0892 54.4429C10.0892 54.4428 10.0892 54.4428 10.0892 54.4428C10.0889 54.4418 10.0878 54.4381 10.0879 54.4315C10.0879 54.4244 10.0893 54.4169 10.0915 54.4104C10.0916 54.4101 10.0917 54.4098 10.0919 54.4095L10.3409 54.278V54.2723Z" stroke="#469BFF"/>
</svg>
