<svg width="126" height="81" viewBox="0 0 126 81" fill="none" xmlns="http://www.w3.org/2000/svg">
<path d="M62.9891 0C45.3156 0 31.1637 6.65357 20.8615 14.5728C10.6249 22.4196 3.77858 31.8214 0.541359 38.2761C-0.180453 39.7045 -0.180453 41.2955 0.541359 42.7239C3.77858 49.1786 10.6249 58.5804 20.8615 66.4272C31.1637 74.3464 45.3156 81 62.9891 81C80.6625 81 94.8144 74.3464 105.117 66.4272C115.353 58.5623 122.2 49.1786 125.459 42.7239C126.18 41.2955 126.18 39.7045 125.459 38.2761C122.2 31.8214 115.353 22.4196 105.117 14.5728C94.8144 6.65357 80.6625 0 62.9891 0ZM94.4863 40.5C94.4863 54.8739 80.3782 66.5357 62.9891 66.5357C45.6 66.5357 31.4918 54.8739 31.4918 40.5C31.4918 26.1261 45.6 14.4643 62.9891 14.4643C80.3782 14.4643 94.4863 26.1261 94.4863 40.5ZM62.9891 28.9286C62.9891 35.3109 56.7115 40.5 48.9903 40.5C46.4749 40.5 44.1126 39.9576 42.0784 38.9813C42.0346 39.4875 41.9909 39.9757 41.9909 40.5C41.9909 50.0826 51.3963 57.8571 62.9891 57.8571C74.5818 57.8571 83.9873 50.0826 83.9873 40.5C83.9873 30.9174 74.5818 23.1429 62.9891 23.1429C62.3766 23.1429 61.7642 23.1609 61.1517 23.2152C62.311 24.8967 62.9891 26.8493 62.9891 28.9286Z" fill="#BFBFBF"/>
</svg>
