<svg width="126" height="81" viewBox="0 0 126 81" fill="none" xmlns="http://www.w3.org/2000/svg">
<g clip-path="url(#clip0_525_4)">
<path d="M7.63888 0.806779C5.59138 -0.490486 2.61857 -0.189901 1.00419 1.45541C-0.610182 3.10072 -0.23612 5.48959 1.81138 6.78686L118.361 80.1931C120.409 81.4904 123.382 81.1898 124.996 79.5445C126.61 77.8992 126.236 75.5103 124.189 74.213L103.478 61.1771C111.274 54.754 116.55 47.5558 119.208 42.4458C119.858 41.196 119.858 39.8038 119.208 38.554C116.275 32.9062 110.112 24.6796 100.899 17.8136C91.6454 10.8843 78.9076 5.06244 63.0001 5.06244C49.5733 5.06244 38.3908 9.22319 29.6692 14.6812L7.63888 0.806779ZM43.9229 23.6513C48.9433 19.9652 55.6567 17.7187 63.0001 17.7187C78.6517 17.7187 91.3501 27.9228 91.3501 40.4999C91.3501 44.4392 90.1098 48.1412 87.9245 51.3685L80.3251 46.5908C81.3489 44.724 81.9001 42.6673 81.9001 40.4999C81.9001 32.1152 73.4345 25.3124 63.0001 25.3124C62.4489 25.3124 61.8976 25.3283 61.3464 25.3757C62.3898 26.847 63.0001 28.5556 63.0001 30.3749C63.0001 31.9886 62.5276 33.5074 61.7008 34.8521L43.9229 23.6513V23.6513ZM87.8458 70.7958L73.4345 61.6833C70.2058 62.7117 66.6817 63.2812 63.0001 63.2812C47.3486 63.2812 34.6501 53.0771 34.6501 40.4999C34.6501 39.4083 34.7486 38.3484 34.9258 37.3042L16.3604 25.5497C11.8717 30.2484 8.66263 34.9312 6.79232 38.554C6.14263 39.8038 6.14263 41.196 6.79232 42.4458C9.72576 48.0937 15.8879 56.3203 25.1017 63.1863C34.3548 70.1156 47.0926 75.9374 63.0001 75.9374C72.4108 75.9374 80.6992 73.8966 87.8458 70.7958Z" fill="#B3B3B3"/>
</g>
<defs>
<clipPath id="clip0_525_4">
<rect width="126" height="81" fill="white"/>
</clipPath>
</defs>
</svg>
