<svg width="275" height="123" viewBox="0 0 275 123" fill="none" xmlns="http://www.w3.org/2000/svg">
<path d="M1.47074 32.397L12.9536 27.3596C14.1877 26.8154 15.6014 27.3147 16.1062 28.4703L35.8184 71.5858L18.322 78.1659L0.0571133 34.6689C-0.1841 34.1416 0.348815 32.8963 1.46513 32.4026L1.47074 32.397Z" fill="#469BFF"/>
<path d="M17.6426 79.5681L36.9172 71.1144Z" fill="#469BFF"/>
<path d="M41.8606 101.047L35.5273 102.842L43.6276 120.485L47.5319 122.347L48.5865 118.179L41.8606 101.047Z" fill="#469BFF"/>
<path d="M31.2417 103.964C31.769 105.44 32.7619 105.457 32.7619 105.457L44.0484 100.767C46.0062 100.313 45.4396 97.8668 45.4396 97.8668L36.4979 75.3722L36.3016 74.9234L20.7461 81.7503L31.2417 103.97V103.964ZM30.2263 81.6101C31.1575 81.2006 32.4534 82.1037 33.1209 83.6239C33.7885 85.1442 33.5753 86.7092 32.6441 87.1187C31.7129 87.5282 30.4171 86.6251 29.7495 85.1049C29.082 83.5847 29.3064 82.014 30.2376 81.6045H30.232L30.2263 81.6101ZM34.0521 91.5616C34.9833 91.1521 36.2791 92.0552 36.9467 93.5754C37.6142 95.0956 37.4067 96.6551 36.4755 97.0646C35.5443 97.4741 34.2484 96.5709 33.5809 95.0507C32.9134 93.5305 33.1265 91.9654 34.0577 91.5559H34.0521V91.5616Z" fill="#469BFF"/>
<path d="M66.2052 9.72288C65.0328 8.01755 63.922 6.60393 62.256 5.26884C58.7107 2.41915 54.3016 0.237012 49.0285 0.0182367C45.9376 -0.116394 42.7401 0.50066 39.7109 1.66185C37.8766 2.36305 36.1376 3.29425 34.4715 4.32081C32.6372 5.45396 30.9599 6.77783 29.1424 7.93341C28.7441 8.18584 28.3234 8.42144 27.9251 8.67387C27.6446 8.85338 28.2729 8.48315 27.9868 8.64583L27.6839 8.81412C27.4651 8.93192 27.252 9.04972 27.022 9.16752C26.36 9.51532 25.6813 9.82946 24.9857 10.1043C24.851 10.166 24.7052 10.2109 24.5706 10.2614C24.492 10.2894 24.4191 10.3119 24.3406 10.3399C24.004 10.469 24.5537 10.267 24.5818 10.267C24.3574 10.2614 23.9872 10.4409 23.7516 10.4914C23.516 10.5419 23.2523 10.5812 22.9943 10.626C22.5735 10.6933 23.2467 10.626 23.1682 10.6092C23.0504 10.6092 22.927 10.6092 22.8035 10.6204C22.6577 10.6204 22.0519 10.5587 22.4726 10.6148C22.8933 10.6709 22.3155 10.5643 22.1809 10.5251C22.0911 10.5026 21.7545 10.368 22.1472 10.5251C22.5174 10.6709 22.2426 10.5643 22.1584 10.5194C22.0462 10.4465 21.5919 10.1324 21.9116 10.3848C22.2314 10.6372 21.8499 10.3119 21.7714 10.2221C21.7265 10.1716 21.6872 10.1212 21.6423 10.0707C21.418 9.81263 21.6592 10.0314 21.7265 10.2221C21.6255 9.93043 21.4292 9.67239 21.3226 9.37508C21.2946 9.30776 21.2833 9.24045 21.2609 9.17313C21.1543 8.85899 21.3002 9.25727 21.3058 9.37508C21.2833 9.20118 21.2272 9.02728 21.1992 8.85339C21.1487 8.52803 21.115 8.19706 21.1038 7.86048C21.087 7.51269 21.0926 7.16489 21.1038 6.81149C21.1038 6.73856 21.115 6.66002 21.115 6.5871C21.115 6.51417 21.0646 7.14806 21.1038 6.74978C21.1207 6.58149 21.1319 6.41881 21.1543 6.25052C21.2609 5.33616 21.4684 4.433 21.6816 3.51863C21.6928 3.47376 21.7097 3.42327 21.7209 3.37839C22.0406 2.30696 21.0646 1.56649 19.9987 1.4543C17.5473 1.2243 14.9781 1.49357 12.4762 2.24526C10.0192 2.99134 7.81464 4.15813 6.00273 5.90272C3.92156 7.90536 2.79403 10.5026 2.32843 12.9596C1.4365 17.6773 2.46867 22.2884 3.78693 26.5573C4.06741 27.4605 5.53713 27.7915 6.55808 27.2978C7.7361 26.7312 8.18487 25.7215 7.88756 24.7567C7.24807 22.7821 6.7993 20.7458 6.53564 18.6646C6.42906 17.8063 6.36736 16.9425 6.35053 16.0674C6.34492 15.6803 6.35053 15.2988 6.36736 14.9118C6.36736 14.8276 6.37858 14.7379 6.37858 14.6481C6.3954 14.2162 6.35053 14.9567 6.37858 14.6818C6.40101 14.4742 6.41784 14.2723 6.44028 14.0591C6.51882 13.3972 6.64784 12.7296 6.82174 12.0621C6.90588 11.7536 7.00685 11.445 7.10222 11.1365C7.19758 10.828 6.9171 11.5853 7.10783 11.1253C7.16953 10.9682 7.23685 10.8168 7.30416 10.6597C7.54538 10.1436 7.82025 9.64434 8.13438 9.1507C8.30267 8.87582 7.79781 9.59947 8.09512 9.2124C8.16804 9.11704 8.23536 9.02168 8.31389 8.92631C8.48218 8.70754 8.6673 8.49437 8.85803 8.28681C9.02631 8.1073 9.1946 7.94463 9.37972 7.76512C9.56484 7.58561 8.90851 8.1634 9.27875 7.86048C9.38533 7.77073 9.49191 7.67536 9.60411 7.58561C9.99678 7.28269 10.4007 6.9966 10.827 6.73856C11.2477 6.4693 10.3053 7.01343 10.698 6.81149L10.9841 6.66002C11.2085 6.54222 11.4385 6.43003 11.6684 6.32906C12.1004 6.13833 12.5379 5.97565 12.9811 5.81858C13.4243 5.66151 12.5155 5.95321 12.7735 5.88029C12.8689 5.85224 12.9643 5.82419 13.0596 5.79615C13.2896 5.72883 13.514 5.67273 13.744 5.61663C14.1479 5.51566 14.5574 5.43713 14.9669 5.3642C15.3764 5.29128 15.7522 5.2464 16.1505 5.20152L16.3974 5.17348C16.8349 5.12299 15.814 5.21274 16.1674 5.19591C16.3469 5.18469 16.532 5.16787 16.7115 5.16226C17.5417 5.10616 18.3663 5.11738 19.1685 5.19031L17.4464 3.2662C16.8293 5.3642 16.532 7.65293 16.8461 9.66678C17.0986 11.2823 17.7829 12.9484 19.4209 13.7618C21.5694 14.8276 24.2957 14.2723 26.7247 13.2625C28.4636 12.5389 30.1129 11.5741 31.6892 10.5699C33.5291 9.39752 35.2232 8.05121 37.0968 6.91245C37.3044 6.78904 37.512 6.66003 37.7251 6.54223C37.282 6.80027 37.8317 6.48613 37.9832 6.40759C38.3758 6.19443 38.791 5.98126 39.2061 5.78492C39.9802 5.40908 40.7768 5.07811 41.5845 4.78641C41.7753 4.7191 41.9716 4.65178 42.1623 4.58447C42.555 4.44984 41.6855 4.71909 42.2353 4.56202C42.6335 4.44422 43.0318 4.33764 43.4357 4.24228C44.1369 4.07399 44.8437 3.94497 45.5505 3.85521C45.7244 3.83278 45.904 3.82156 46.0778 3.79351C46.3583 3.74863 45.6291 3.82156 45.9096 3.80473C45.9769 3.80473 46.0386 3.79351 46.1059 3.7879C46.4705 3.76546 46.8352 3.74863 47.1942 3.74302C47.8617 3.73741 48.518 3.76546 49.1688 3.82716L49.5839 3.87204C50.1224 3.93375 49.3483 3.82717 49.6456 3.87766C49.9429 3.92814 50.2626 3.97863 50.5655 4.04033C51.1658 4.16374 51.7492 4.31521 52.3214 4.4891C52.8655 4.65739 53.404 4.96031 53.965 5.0725C53.9425 5.0725 53.5106 4.88178 53.7911 5.00519C53.8584 5.03324 53.9201 5.06128 53.993 5.08933C54.1052 5.13982 54.2174 5.1903 54.3296 5.24079C54.5989 5.3642 54.8681 5.49322 55.1262 5.62786C56.0574 6.10467 56.9493 6.63758 57.7851 7.22659C58.1722 7.49585 54.7447 4.61812 55.1206 4.8986C55.3169 5.05006 54.7447 4.59007 55.0813 4.87055C55.171 4.94348 55.2552 5.0164 55.3393 5.08933C55.5076 5.22957 55.6759 5.37542 55.8442 5.52127C56.4332 6.03736 56.9886 6.57588 57.5215 7.13684C58.1329 7.78195 58.6602 8.46632 59.2212 9.1507C59.2492 9.18435 59.2717 9.22362 59.2941 9.25728C59.8495 10.0595 61.7119 10.8728 62.5982 10.2277C63.6584 9.45922 65.2179 11.0355 64.6625 10.2277L66.2108 9.71166L66.2052 9.72288Z" fill="#469BFF"/>
<path d="M10.3907 28.0664L3.84426 30.3271L2.3521 26.922C2.19503 26.5686 2.42503 26.1255 2.86819 25.9348L7.04735 24.1004C7.79343 23.7751 8.60683 23.9938 8.87048 24.5885" fill="#469BFF"/>
<path d="M17.6101 79.2092L36.8847 70.7555C37.2606 70.5929 37.6869 70.7443 37.8383 71.0921L39.1061 73.9811C39.2576 74.3289 39.0781 74.7496 38.7078 74.9123L19.4332 83.3716C19.0573 83.5342 18.631 83.3828 18.4796 83.035L17.2118 80.146C17.0603 79.7982 17.2342 79.3775 17.6101 79.2148V79.2092Z" fill="#469BFF"/>
<path d="M94.9487 67.6938V77.9314H79.4717V122.466H68.3759V77.9314H53.1738V67.6938H94.9431H94.9487Z" fill="#469BFF"/>
<path d="M133.702 67.5436V77.7419H110.248V89.9653H133.702V99.8943H110.248V112.118H133.702V122.316H99.708V67.5492H133.702V67.5436Z" fill="#469BFF"/>
<path d="M169.388 113.23C170.914 113.23 172.383 113.056 173.791 112.713C175.199 112.371 176.535 111.878 177.797 111.244C179.059 110.61 180.231 109.847 181.308 108.972C182.385 108.091 183.35 107.109 184.192 106.01L191.495 112.119C190.205 113.695 188.752 115.137 187.131 116.433C185.51 117.728 183.76 118.839 181.881 119.754C179.996 120.668 178.01 121.375 175.918 121.874C173.825 122.368 171.649 122.62 169.382 122.62C166.774 122.62 164.272 122.295 161.86 121.644C159.453 120.993 157.193 120.073 155.089 118.873C152.985 117.678 151.073 116.253 149.362 114.593C147.651 112.938 146.175 111.092 144.941 109.056C143.701 107.02 142.748 104.838 142.08 102.504C141.407 100.176 141.076 97.747 141.076 95.2283C141.076 92.7096 141.413 90.2806 142.08 87.9526C142.753 85.6246 143.707 83.4425 144.941 81.4006C146.181 79.3643 147.651 77.5187 149.362 75.8639C151.073 74.209 152.98 72.7842 155.089 71.5837C157.193 70.3889 159.453 69.4633 161.86 68.8126C164.266 68.1619 166.774 67.8365 169.382 67.8365C171.649 67.8365 173.825 68.0833 175.918 68.5826C178.01 69.0762 179.996 69.7887 181.881 70.703C183.76 71.6174 185.51 72.7225 187.131 74.0071C188.752 75.2917 190.205 76.7278 191.495 78.3041L184.192 84.4522C183.35 83.3583 182.391 82.3654 181.308 81.4735C180.226 80.5816 179.059 79.8243 177.797 79.2016C176.535 78.5789 175.199 78.0965 173.791 77.7487C172.383 77.4065 170.914 77.2326 169.388 77.2326C166.836 77.2326 164.429 77.7038 162.163 78.6463C159.896 79.5887 157.927 80.8733 156.239 82.5057C154.556 84.1381 153.227 86.0397 152.251 88.2163C151.274 90.3928 150.792 92.732 150.792 95.2227C150.792 97.7133 151.28 100.025 152.251 102.212C153.227 104.4 154.556 106.313 156.239 107.94C157.922 109.572 159.896 110.857 162.163 111.799C164.429 112.742 166.836 113.213 169.388 113.213V113.23Z" fill="#469BFF"/>
<path d="M240.991 67.6938V122.46H230.215V100.039H209.487V122.46H198.431V67.6938H209.487V90.1154H230.215V67.6938H240.991V67.6938Z" fill="#469BFF"/>
<path d="M56.511 49.0607C58.0368 49.0607 59.5065 48.8868 60.9145 48.5446C62.3225 48.2024 63.6576 47.7088 64.9198 47.0749C66.1819 46.441 67.3544 45.6781 68.4314 44.803C69.5085 43.9223 70.4733 42.9406 71.3148 41.8411L78.6185 47.95C77.3283 49.5263 75.8754 50.968 74.2542 52.2638C72.633 53.5596 70.8828 54.6703 69.0036 55.5847C67.1188 56.4991 65.133 57.2059 63.0406 57.7051C60.9482 58.1988 58.7716 58.4512 56.5054 58.4512C53.8969 58.4512 51.395 58.1258 48.9829 57.4751C46.5763 56.8244 44.3157 55.9044 42.212 54.704C40.1084 53.5091 38.1956 52.0843 36.4846 50.4238C34.7737 48.769 33.2984 46.9234 32.0643 44.8871C30.8245 42.8509 29.8709 40.6687 29.2033 38.3351C28.5302 36.0071 28.1992 33.5782 28.1992 31.0594C28.1992 28.5407 28.5358 26.1117 29.2033 23.7838C29.8765 21.4558 30.8301 19.2736 32.0643 17.2317C33.304 15.1954 34.7737 13.3499 36.4846 11.695C38.1956 10.0402 40.1028 8.61535 42.212 7.41489C44.3157 6.22004 46.5763 5.29446 48.9829 4.64374C51.3894 3.99302 53.8969 3.66766 56.5054 3.66766C58.7716 3.66766 60.9482 3.91449 63.0406 4.41374C65.133 4.913 67.1188 5.6142 69.0036 6.53418C70.8828 7.44855 72.633 8.55364 74.2542 9.83824C75.8754 11.1228 77.3283 12.5589 78.6185 14.1352L71.3148 20.2834C70.4733 19.1895 69.5141 18.1966 68.4314 17.3047C67.3488 16.4127 66.1819 15.6554 64.9198 15.0328C63.6576 14.4101 62.3225 13.9277 60.9145 13.5799C59.5065 13.2377 58.0368 13.0638 56.511 13.0638C53.9586 13.0638 51.5521 13.535 49.2858 14.4774C47.0195 15.4198 45.0505 16.7044 43.362 18.3368C41.6791 19.9692 40.3497 21.8709 39.3736 24.0474C38.3975 26.2239 37.9151 28.5632 37.9151 31.0538C37.9151 33.5445 38.4031 35.8557 39.3736 38.0434C40.3497 40.2312 41.6791 42.144 43.362 43.7708C45.0449 45.4032 47.0195 46.6878 49.2858 47.6302C51.5521 48.5727 53.9586 49.0439 56.511 49.0439V49.0607Z" fill="#469BFF"/>
<path d="M113.92 3.69024L114.195 4.45315L108.67 18.2416L101.013 37.0731H116.293L112.625 28.1762L118.15 14.3878L135.798 58.4626H124.427L120.242 47.2321H97.0691L92.329 58.4626H81.2725L103.105 3.69585H113.92V3.69024Z" fill="#469BFF"/>
<path d="M156.402 58.4569C148.823 58.4569 143.057 54.6535 139.107 47.0357L147.909 41.9534C150.489 46.6374 153.412 48.9822 156.671 48.9822C158.382 48.9822 159.88 48.4998 161.17 47.5293C162.326 46.4859 162.909 45.3528 162.909 44.1299C162.909 42.907 162.5 41.7234 161.686 40.5005C161.159 39.9171 160.396 39.1822 159.397 38.3071C158.399 37.4264 157.148 36.3774 155.645 35.1545C152.778 32.8377 150.4 30.7958 148.52 29.0232C146.636 27.2562 145.261 25.7472 144.397 24.4962C142.552 21.9495 141.632 19.4532 141.632 17.013C141.632 13.3443 143.051 10.2029 145.895 7.57762C148.84 4.98037 152.346 3.68455 156.396 3.68455C159.184 3.68455 161.782 4.33526 164.177 5.63109C165.417 6.21449 166.69 7.05593 168.008 8.14981C169.326 9.24368 170.718 10.5844 172.193 12.1607L164.412 18.6903C161.804 15.1506 159.134 13.3836 156.396 13.3836C154.87 13.3836 153.788 13.7033 153.16 14.3372C152.318 14.9711 151.897 15.7901 151.897 16.783C151.897 17.5459 152.15 18.3369 152.649 19.1503C153.148 19.6607 154.023 20.4573 155.274 21.54C156.525 22.6226 158.163 24.0194 160.188 25.7247C162.556 27.632 164.362 29.1522 165.596 30.2685C166.409 30.981 167.015 31.4914 167.414 31.7944C171.099 35.2331 172.939 39.1766 172.939 43.6363C172.939 48.0959 171.424 51.5795 168.401 54.3282C165.4 57.0769 161.4 58.4513 156.396 58.4513L156.402 58.4569Z" fill="#469BFF"/>
<path d="M218.226 3.69024V13.9278H202.749V58.4626H191.653V13.9278H176.451V3.69024H218.22H218.226Z" fill="#469BFF"/>
<path d="M222.848 3.69024H233.388V58.457H222.848V3.69024Z" fill="#469BFF"/>
<path d="M275 3.69024V13.8885H251.546V26.1119H275V36.0409H251.546V48.2643H275V58.4626H241.006V3.69585H275V3.69024Z" fill="#469BFF"/>
<path d="M100.235 7.92921L95.1045 5.77368L82.9818 34.6265L88.1121 36.782L100.235 7.92921Z" fill="#469BFF"/>
<path d="M97.2429 6.67339L89.0303 3.22281L86.1577 10.0598L94.3703 13.5104L97.2429 6.67339Z" fill="#469BFF"/>
<path d="M92.0236 17.3025L84.3281 14.0692L81.4555 20.9062L89.151 24.1395L92.0236 17.3025Z" fill="#469BFF"/>
<path d="M87.3537 28.4134L79.6582 25.1801L76.7856 32.0171L84.4811 35.2504L87.3537 28.4134Z" fill="#469BFF"/>
</svg>
