<svg width="60" height="34" viewBox="0 0 60 34" fill="none" xmlns="http://www.w3.org/2000/svg">
<mask id="path-1-inside-1_512_292" fill="white">
<path fill-rule="evenodd" clip-rule="evenodd" d="M0.0779536 33.6385L59.9897 33.499L59.9118 -4.54806e-05L14.6558 0.105288L0.0404683 17.5331L0.0779536 33.6385ZM21.3243 28.1132L51.9244 28.0419L51.8712 5.17238L21.2711 5.2436L21.3243 28.1132Z"/>
</mask>
<path d="M59.9897 33.499L59.9921 34.499L60.9921 34.4967L60.9897 33.4967L59.9897 33.499ZM0.0779536 33.6385L-0.922044 33.6408L-0.919716 34.6408L0.0802811 34.6385L0.0779536 33.6385ZM59.9118 -4.54806e-05L60.9118 -0.00237299L60.9094 -1.00237L59.9094 -1.00004L59.9118 -4.54806e-05ZM14.6558 0.105288L14.6535 -0.894709L14.1884 -0.893627L13.8896 -0.537284L14.6558 0.105288ZM0.0404683 17.5331L-0.725757 16.8906L-0.960379 17.1703L-0.959529 17.5355L0.0404683 17.5331ZM51.9244 28.0419L51.9267 29.0419L52.9267 29.0396L52.9244 28.0396L51.9244 28.0419ZM21.3243 28.1132L20.3243 28.1155L20.3266 29.1155L21.3266 29.1132L21.3243 28.1132ZM51.8712 5.17238L52.8712 5.17005L52.8688 4.17006L51.8688 4.17238L51.8712 5.17238ZM21.2711 5.2436L21.2687 4.24361L20.2687 4.24593L20.2711 5.24593L21.2711 5.2436ZM59.9874 32.499L0.0756261 32.6385L0.0802811 34.6385L59.9921 34.499L59.9874 32.499ZM58.9118 0.00228202L58.9897 33.5014L60.9897 33.4967L60.9118 -0.00237299L58.9118 0.00228202ZM14.6582 1.10529L59.9141 0.999952L59.9094 -1.00004L14.6535 -0.894709L14.6582 1.10529ZM0.806693 18.1757L15.4221 0.74786L13.8896 -0.537284L-0.725757 16.8906L0.806693 18.1757ZM1.07795 33.6361L1.04047 17.5308L-0.959529 17.5355L-0.922044 33.6408L1.07795 33.6361ZM51.9221 27.0419L21.322 27.1132L21.3266 29.1132L51.9267 29.0419L51.9221 27.0419ZM50.8712 5.17471L50.9244 28.0443L52.9244 28.0396L52.8712 5.17005L50.8712 5.17471ZM21.2734 6.2436L51.8735 6.17238L51.8688 4.17238L21.2687 4.24361L21.2734 6.2436ZM22.3243 28.1108L22.2711 5.24128L20.2711 5.24593L20.3243 28.1155L22.3243 28.1108Z" fill="#469BFF" mask="url(#path-1-inside-1_512_292)"/>
<path d="M43.8584 22.3066L43.8733 28.7049L52.248 28.6854L52.2332 22.2871M43.8584 22.3066L52.2332 22.2871M43.8584 22.3066L43.8461 17.028M52.2332 22.2871L52.2209 17.0085M43.8461 17.028L52.2209 17.0085M43.8461 17.028L43.8323 11.1096M52.2209 17.0085L52.2071 11.0901M43.8323 11.1096L43.8186 5.19113L52.1933 5.17164L52.2071 11.0901M43.8323 11.1096L52.2071 11.0901" stroke="#469BFF"/>
<path d="M20.9886 22.3598L21.0035 28.7581L30.0225 28.7371L30.0076 22.3388M20.9886 22.3598L30.0076 22.3388M20.9886 22.3598L20.9763 17.0812M30.0076 22.3388L29.9953 17.0602M20.9763 17.0812L29.9953 17.0602M20.9763 17.0812L20.9625 11.1628M29.9953 17.0602L29.9815 11.1418M20.9625 11.1628L20.9488 5.24434L29.9677 5.22334L29.9815 11.1418M20.9625 11.1628L29.9815 11.1418" stroke="#469BFF"/>
</svg>
