<svg width="85" height="307" viewBox="0 0 85 307" fill="none" xmlns="http://www.w3.org/2000/svg">
<path d="M42.5 85.2046C30.8162 85.2046 20.7388 81.2518 12.268 73.3462C4.08935 65.1478 0 54.7535 0 42.1631C0 29.5727 4.08935 19.4712 12.268 11.8584C20.7388 3.95279 30.8162 0 42.5 0C54.4759 0 64.5533 3.95279 72.732 11.8584C80.9107 19.4712 85 29.5727 85 42.1631C85 54.7535 80.9107 65.1478 72.732 73.3462C64.5533 81.2518 54.4759 85.2046 42.5 85.2046ZM4.81959 307L33.7371 201.592L43.3763 241.12C30.8162 241.12 20.4467 237.46 12.268 230.14C4.38144 222.82 0.438144 212.719 0.438144 199.835C0.438144 186.952 4.52749 176.704 12.7062 169.092C20.8849 161.479 30.9622 157.672 42.9381 157.672C55.2062 157.672 65.2835 161.625 73.1701 169.531C81.0567 177.144 85 187.245 85 199.835C85 203.642 84.7079 207.448 84.1237 211.255C83.5395 214.768 82.3711 219.16 80.6186 224.431C79.1581 229.408 76.6753 235.85 73.1701 243.755L48.1959 307H4.81959Z" fill="#DB4B08"/>
</svg>
