<svg width="506" height="506" viewBox="0 0 506 506" fill="none" xmlns="http://www.w3.org/2000/svg">
<path d="M0 253C0 113.272 113.272 0 253 0C392.728 0 506 113.272 506 253C506 392.728 392.728 506 253 506C113.272 506 0 392.728 0 253Z" fill="#E8E5DC"/>
<path d="M55.8227 342.35H16.9925C32.4853 394.236 96.4642 501.381 246.06 505.876C395.655 510.372 475.209 391.239 496.286 331.111L494.665 313.69L498.448 313.128L490.341 304.699V287.841H489.26V285.593H491.422L491.962 282.783H489.26L481.153 253L477.37 281.659L475.209 282.221V285.031L477.37 284.469L478.992 305.823L471.966 313.128L474.128 314.814V331.111H462.778L463.319 320.434L465.481 319.872V316.5L462.778 315.938V310.881L460.076 310.319L459.536 317.062H457.914L458.455 310.881H454.131V316.5H452.51V310.881H449.267V316.5H440.62V324.929H445.484V331.111H406.572L405.491 323.805H399.006L392.52 316.5C388.017 311.255 378.469 300.766 376.307 300.766C374.145 300.766 364.958 309.382 360.634 313.69H337.395V295.146H333.612V300.766H331.45V295.146H327.667V300.204H323.884V295.146H318.479V314.814H291.457L289.295 337.292H194.717L176.342 325.491L162.291 337.292H114.731C113.434 328.75 100.86 325.866 94.7348 325.491H84.4663V344.597H74.1979V317.062H70.4148V323.805H67.7125V317.062H64.4699V323.805H61.7676V317.062H59.0654V323.805L55.8227 325.491L53.6609 332.235V337.854H55.8227V342.35Z" fill="#C9C9C4"/>
<path d="M266.979 207.687L294.733 218.611L292.841 255.882C311.512 253.825 314.708 258.666 313.026 261.665L260.041 287.369L227.871 310.503L207.687 329.781L217.148 313.716L225.979 268.734L227.871 239.174L225.979 218.611L266.979 207.687Z" fill="#F4CBA2"/>
<path d="M172.443 127.759C172.946 94.5289 208.316 79.0887 225.938 75.5224C250.608 75.5224 266.007 93.5638 270.622 102.585C276.16 114.668 276.915 140.765 275.657 152.303L269.363 168.037C259.797 184.652 263.489 202.232 267.475 208.945C247.839 224.553 223.211 228.875 213.351 229.085C190.191 224.05 176.429 190.484 172.443 174.331C172.233 172.653 171.939 160.989 172.443 127.759Z" fill="#FBD3AA"/>
<path d="M218.386 309.012L215.868 319.082L251.741 292.02L271.881 278.803L294.537 269.992V255.517C307.124 249.224 314.047 257.405 315.935 262.44C317.614 270.622 318.956 289.251 315.935 290.761C306.495 293.698 285.475 300.076 276.915 302.089L238.525 323.488L199.505 354.326V325.376L218.386 309.012Z" fill="url(#paint0_radial_312_84)"/>
<path d="M275.027 152.303C276.538 147.772 274.398 120.206 273.139 106.99C268.314 106.99 258.664 106.738 258.664 105.731C258.664 104.724 251.532 92.7247 247.965 86.8507L228.455 83.704L186.289 105.731L174.96 143.493V174.96L190.065 213.351C181.002 217.882 171.604 210.624 168.037 206.428C158.975 204.414 161.744 175.799 164.261 161.744L161.744 146.639C158.723 118.948 173.072 96.5008 180.624 88.7388C213.351 53.495 247.965 58.5299 269.993 61.0473C287.614 63.0612 305.446 74.0539 312.159 79.2985C332.802 74.7672 336.284 87.0605 335.445 93.7736H338.592C348.158 104.347 342.578 113.703 338.592 117.06C337.963 140.346 330.41 137.199 328.522 139.716C327.012 141.73 326.634 146.43 326.634 148.527V159.856L332.928 175.59C337.963 215.868 309.852 222.581 295.167 220.903C280.062 222.413 268.734 210.624 264.958 204.54C256.902 190.946 268.314 164.051 275.027 152.303Z" fill="url(#paint1_radial_312_84)"/>
<path d="M362.191 480.352C328.444 496.782 290.54 506 250.483 506C224.967 506 200.325 502.26 177.075 495.298L175.59 490.438L180.624 489.065L178.736 477.393H172.443L168.667 467.781L173.701 467.095L171.813 459.542L163.002 455.423L163.632 446.498H168.667L167.408 434.139L161.114 432.08L161.744 423.841H168.037V408.736L162.373 403.93L166.149 396.378L172.443 395.692L175.59 386.08L171.813 381.96L175.59 375.095H181.254L186.918 368.915L184.4 361.363L191.323 353.811L196.358 357.93C216.078 337.791 267.098 296.414 313.418 292.02C332.089 308.498 368.172 353.536 363.137 401.871C363.976 403.93 366.535 408.05 370.06 408.05L368.801 427.96L367.542 436.199C369.011 444.896 370.186 462.7 363.137 464.348C363.137 468.465 362.887 474.379 362.191 480.352Z" fill="#5B6D70"/>
<defs>
<radialGradient id="paint0_radial_312_84" cx="0" cy="0" r="1" gradientUnits="userSpaceOnUse" gradientTransform="translate(-75.42 361.094) rotate(-18.3565) scale(610.165 877.296)">
<stop stop-color="white"/>
<stop offset="1" stop-color="#F1F1F1"/>
</radialGradient>
<radialGradient id="paint1_radial_312_84" cx="0" cy="0" r="1" gradientUnits="userSpaceOnUse" gradientTransform="translate(364.006 111.832) rotate(98.4738) scale(248.618 1144.18)">
<stop stop-color="#271604"/>
<stop offset="1" stop-color="#41280D"/>
</radialGradient>
</defs>
</svg>
