<svg width="118" height="118" viewBox="0 0 118 118" fill="none" xmlns="http://www.w3.org/2000/svg">
<rect x="21.351" y="20.1649" width="78.2871" height="78.2871" rx="33" fill="#DB4B08"/>
<rect x="64.4364" y="35.3721" width="36.7712" height="22.5372" rx="9.5" transform="rotate(-32.5145 64.4364 35.3721)" fill="#DB4B08"/>
<rect x="84.4555" y="56.0333" width="36.7712" height="22.5372" rx="9.5" transform="rotate(32.4701 84.4555 56.0333)" fill="#DB4B08"/>
<rect x="71.9052" y="80.8276" width="36.7712" height="22.5372" rx="9.5" transform="rotate(91.1527 71.9052 80.8276)" fill="#DB4B08"/>
<rect x="45.4155" y="79.2251" width="36.7712" height="22.5372" rx="9.5" transform="rotate(152.095 45.4155 79.2251)" fill="#DB4B08"/>
<rect x="36.6166" y="54.4888" width="36.7712" height="22.5372" rx="9.5" transform="rotate(-146.564 36.6166 54.4888)" fill="#DB4B08"/>
<rect x="39.1428" y="42.087" width="36.7712" height="25.4266" rx="9.5" transform="rotate(-104.954 39.1428 42.087)" fill="#DB4B08"/>
<rect x="51.0052" y="32.6285" width="36.7712" height="22.5372" rx="9.5" transform="rotate(-62.5412 51.0052 32.6285)" fill="#DB4B08"/>
<rect x="81.2623" y="42.7021" width="36.7712" height="22.5372" rx="9.5" transform="rotate(2.44335 81.2623 42.7021)" fill="#DB4B08"/>
<rect x="81.6344" y="71.17" width="36.7712" height="22.5372" rx="9.5" transform="rotate(61.126 81.6344 71.17)" fill="#DB4B08"/>
<rect x="58.583" y="83.039" width="36.7712" height="22.5372" rx="9.5" transform="rotate(122.069 58.583 83.039)" fill="#DB4B08"/>
<rect x="36.4057" y="69.4285" width="36.7712" height="22.5372" rx="9.5" transform="rotate(-171.915 36.4057 69.4285)" fill="#DB4B08"/>
<circle cx="59.3084" cy="60.4946" r="20.1649" fill="#61121F"/>
<circle cx="59.3084" cy="60.4949" r="17.0626" fill="#FEBD21"/>
<circle cx="59.3084" cy="60.4945" r="27.468" stroke="#FEBD21" stroke-width="2" stroke-dasharray="6 6"/>
</svg>
